<svg width="104" height="32" viewBox="0 0 104 32" fill="none" xmlns="http://www.w3.org/2000/svg">
<path d="M44.5901 15.2782H41.7942C41.5657 15.2782 41.3973 15.2301 41.2891 15.1338C41.1929 15.0256 41.1448 14.8571 41.1448 14.6286V2.93534C41.1448 2.70677 41.1929 2.54436 41.2891 2.44812C41.3973 2.33985 41.5657 2.28571 41.7942 2.28571H47.3139C48.9494 2.28571 50.0678 2.61053 50.6691 3.26015C51.2704 3.90977 51.571 4.75789 51.571 5.80451V8.11429C51.571 9.1609 51.2704 10.009 50.6691 10.6586C50.0678 11.3083 48.9494 11.6331 47.3139 11.6331H45.2395V14.6286C45.2395 14.8571 45.1854 15.0256 45.0772 15.1338C44.981 15.2301 44.8186 15.2782 44.5901 15.2782ZM45.2034 5.66015V8.38496H46.8269C47.1756 8.38496 47.4041 8.29474 47.5124 8.11429C47.6206 7.93383 47.6747 7.72932 47.6747 7.50075V6.54436C47.6747 6.31579 47.6206 6.11128 47.5124 5.93083C47.4041 5.75038 47.1756 5.66015 46.8269 5.66015H45.2034Z" fill="white"/>
<path d="M57.9724 6.07519L57.1246 8.81804H59.9567L59.1089 6.07519C59.0608 5.96692 59.0066 5.88872 58.9465 5.8406C58.8984 5.79248 58.8383 5.76842 58.7661 5.76842H58.3152C58.243 5.76842 58.1769 5.79248 58.1167 5.8406C58.0686 5.88872 58.0205 5.96692 57.9724 6.07519ZM56.9442 14.6286C56.9442 14.8571 56.8901 15.0256 56.7819 15.1338C56.6857 15.2301 56.5233 15.2782 56.2949 15.2782H53.6432C53.4147 15.2782 53.2463 15.2301 53.1381 15.1338C53.0419 15.0256 52.9938 14.8571 52.9938 14.6286V9.86466C52.9938 9.50376 53.0479 9.08872 53.1562 8.61955C53.2764 8.15038 53.4568 7.60301 53.6973 6.97744L55.2667 2.8812C55.3388 2.67669 55.447 2.52632 55.5914 2.43008C55.7477 2.33383 55.9461 2.28571 56.1866 2.28571H61.039C61.2675 2.28571 61.4539 2.33383 61.5982 2.43008C61.7545 2.52632 61.8687 2.67669 61.9409 2.8812L63.5102 6.97744C63.7508 7.60301 63.9251 8.15038 64.0334 8.61955C64.1536 9.08872 64.2137 9.50376 64.2137 9.86466V14.6286C64.2137 14.8571 64.1596 15.0256 64.0514 15.1338C63.9552 15.2301 63.7929 15.2782 63.5644 15.2782H60.8405C60.6 15.2782 60.4197 15.2301 60.2994 15.1338C60.1912 15.0256 60.1371 14.8571 60.1371 14.6286V12.1023H56.9442V14.6286Z" fill="white"/>
<path d="M73.1693 15.2782H67.0903C66.8618 15.2782 66.6935 15.2301 66.5852 15.1338C66.489 15.0256 66.4409 14.8571 66.4409 14.6286V2.93534C66.4409 2.70677 66.489 2.54436 66.5852 2.44812C66.6935 2.33985 66.8618 2.28571 67.0903 2.28571H73.1693C74.6725 2.28571 75.7849 2.58647 76.5064 3.18797C77.24 3.78947 77.6068 4.71579 77.6068 5.96692V11.597C77.6068 12.8481 77.24 13.7744 76.5064 14.3759C75.7849 14.9774 74.6725 15.2782 73.1693 15.2782ZM70.5357 5.73233V11.8677H72.6823C72.9709 11.8677 73.1813 11.7955 73.3136 11.6511C73.4579 11.5068 73.5301 11.2842 73.5301 10.9835V6.5985C73.5301 6.29774 73.4579 6.0812 73.3136 5.94887C73.1813 5.80451 72.9709 5.73233 72.6823 5.73233H70.5357Z" fill="white"/>
<path d="M88.9186 15.2782H80.5487C80.3202 15.2782 80.1519 15.2301 80.0436 15.1338C79.9474 15.0256 79.8993 14.8571 79.8993 14.6286V2.93534C79.8993 2.70677 79.9474 2.54436 80.0436 2.44812C80.1519 2.33985 80.3202 2.28571 80.5487 2.28571H88.9186C89.1471 2.28571 89.3094 2.33985 89.4056 2.44812C89.5138 2.54436 89.568 2.70677 89.568 2.93534V5.04662C89.568 5.27519 89.5138 5.44361 89.4056 5.55188C89.3094 5.64812 89.1471 5.69624 88.9186 5.69624H83.9399V7.08571H87.4575C87.686 7.08571 87.8483 7.13985 87.9445 7.24812C88.0527 7.34436 88.1068 7.50677 88.1068 7.73534V9.66617C88.1068 9.89474 88.0527 10.0632 87.9445 10.1714C87.8483 10.2677 87.686 10.3158 87.4575 10.3158H83.9399V11.8677H88.9186C89.1471 11.8677 89.3094 11.9218 89.4056 12.0301C89.5138 12.1263 89.568 12.2887 89.568 12.5173V14.6286C89.568 14.8571 89.5138 15.0256 89.4056 15.1338C89.3094 15.2301 89.1471 15.2782 88.9186 15.2782Z" fill="white"/>
<path d="M101.533 15.2782H92.3512C92.1227 15.2782 91.9544 15.2301 91.8462 15.1338C91.75 15.0256 91.7019 14.8571 91.7019 14.6286V2.93534C91.7019 2.70677 91.75 2.54436 91.8462 2.44812C91.9544 2.33985 92.1227 2.28571 92.3512 2.28571H95.1472C95.3757 2.28571 95.538 2.33985 95.6342 2.44812C95.7425 2.54436 95.7966 2.70677 95.7966 2.93534V11.8677H98.2679V8.94436C98.2679 8.71579 98.316 8.55338 98.4122 8.45714C98.5204 8.34887 98.6888 8.29474 98.9173 8.29474H101.533C101.761 8.29474 101.924 8.34887 102.02 8.45714C102.128 8.55338 102.182 8.71579 102.182 8.94436V14.6286C102.182 14.8571 102.128 15.0256 102.02 15.1338C101.924 15.2301 101.761 15.2782 101.533 15.2782Z" fill="white"/>
<path d="M44.4819 29.7143H41.7942C41.5657 29.7143 41.3973 29.6662 41.2891 29.5699C41.1929 29.4617 41.1448 29.2932 41.1448 29.0647V17.3714C41.1448 17.1429 41.1929 16.9804 41.2891 16.8842C41.3973 16.7759 41.5657 16.7218 41.7942 16.7218H44.6984C44.8908 16.7218 45.0471 16.7639 45.1674 16.8481C45.2996 16.9323 45.4199 17.0707 45.5281 17.2632L47.1516 20.2045C47.2117 20.3128 47.2598 20.391 47.2959 20.4391C47.344 20.4872 47.4041 20.5113 47.4763 20.5113H47.6386C47.7108 20.5113 47.7649 20.4872 47.801 20.4391C47.8491 20.391 47.9032 20.3128 47.9633 20.2045L49.5688 17.2632C49.677 17.0707 49.7912 16.9323 49.9115 16.8481C50.0438 16.7639 50.2061 16.7218 50.3985 16.7218H53.3208C53.5492 16.7218 53.7116 16.7759 53.8078 16.8842C53.916 16.9804 53.9701 17.1429 53.9701 17.3714V29.0647C53.9701 29.2932 53.916 29.4617 53.8078 29.5699C53.7116 29.6662 53.5492 29.7143 53.3208 29.7143H50.5428C50.3143 29.7143 50.146 29.6662 50.0378 29.5699C49.9415 29.4617 49.8934 29.2932 49.8934 29.0647V22.7128L48.8292 24.6797C48.7209 24.8842 48.5887 25.0346 48.4323 25.1308C48.288 25.215 48.1016 25.2571 47.8731 25.2571H47.1516C46.9231 25.2571 46.7307 25.215 46.5744 25.1308C46.4301 25.0346 46.3038 24.8842 46.1956 24.6797L45.1313 22.7128V29.0647C45.1313 29.2932 45.0772 29.4617 44.9689 29.5699C44.8727 29.6662 44.7104 29.7143 44.4819 29.7143Z" fill="white"/>
<path d="M61.1609 20.5113L60.3131 23.2541H63.1451L62.2973 20.5113C62.2492 20.403 62.1951 20.3248 62.135 20.2767C62.0868 20.2286 62.0267 20.2045 61.9546 20.2045H61.5036C61.4314 20.2045 61.3653 20.2286 61.3052 20.2767C61.2571 20.3248 61.209 20.403 61.1609 20.5113ZM60.1327 29.0647C60.1327 29.2932 60.0786 29.4617 59.9703 29.5699C59.8741 29.6662 59.7118 29.7143 59.4833 29.7143H56.8316C56.6031 29.7143 56.4348 29.6662 56.3266 29.5699C56.2304 29.4617 56.1823 29.2932 56.1823 29.0647V24.3007C56.1823 23.9398 56.2364 23.5248 56.3446 23.0556C56.4649 22.5865 56.6452 22.0391 56.8858 21.4135L58.4551 17.3173C58.5273 17.1128 58.6355 16.9624 58.7798 16.8662C58.9361 16.7699 59.1346 16.7218 59.3751 16.7218H64.2274C64.4559 16.7218 64.6423 16.7699 64.7866 16.8662C64.9429 16.9624 65.0572 17.1128 65.1293 17.3173L66.6987 21.4135C66.9392 22.0391 67.1136 22.5865 67.2218 23.0556C67.3421 23.5248 67.4022 23.9398 67.4022 24.3007V29.0647C67.4022 29.2932 67.3481 29.4617 67.2398 29.5699C67.1436 29.6662 66.9813 29.7143 66.7528 29.7143H64.029C63.7885 29.7143 63.6081 29.6662 63.4878 29.5699C63.3796 29.4617 63.3255 29.2932 63.3255 29.0647V26.5383H60.1327V29.0647Z" fill="white"/>
<path d="M75.0402 29.7143H72.118C71.8895 29.7143 71.7211 29.6662 71.6129 29.5699C71.5167 29.4617 71.4686 29.2932 71.4686 29.0647V20.2045H68.8169C68.5885 20.2045 68.4201 20.1564 68.3119 20.0601C68.2157 19.9519 68.1676 19.7835 68.1676 19.5549V17.3714C68.1676 17.1429 68.2157 16.9804 68.3119 16.8842C68.4201 16.7759 68.5885 16.7218 68.8169 16.7218H78.3413C78.5697 16.7218 78.7321 16.7759 78.8283 16.8842C78.9365 16.9804 78.9906 17.1429 78.9906 17.3714V19.5549C78.9906 19.7835 78.9365 19.9519 78.8283 20.0601C78.7321 20.1564 78.5697 20.2045 78.3413 20.2045H75.6896V29.0647C75.6896 29.2932 75.6355 29.4617 75.5273 29.5699C75.431 29.6662 75.2687 29.7143 75.0402 29.7143Z" fill="white"/>
<path d="M89.2972 29.7143H84.8958C83.3926 29.7143 82.2743 29.4135 81.5407 28.812C80.8192 28.2105 80.4584 27.2842 80.4584 26.0331V20.4211C80.4584 19.1699 80.8192 18.2436 81.5407 17.6421C82.2743 17.0286 83.3926 16.7218 84.8958 16.7218H89.2972C89.5257 16.7218 89.6881 16.7759 89.7843 16.8842C89.8925 16.9804 89.9466 17.1429 89.9466 17.3714V19.5549C89.9466 19.7835 89.8925 19.9519 89.7843 20.0601C89.6881 20.1564 89.5257 20.2045 89.2972 20.2045H85.6715C85.2987 20.2045 85.0221 20.2827 84.8417 20.4391C84.6614 20.5835 84.5712 20.806 84.5712 21.1068V25.4015C84.5712 25.7023 84.6614 25.9248 84.8417 26.0692C85.0221 26.2015 85.2987 26.2677 85.6715 26.2677H89.2972C89.5257 26.2677 89.6881 26.3218 89.7843 26.4301C89.8925 26.5263 89.9466 26.6887 89.9466 26.9173V29.0647C89.9466 29.2932 89.8925 29.4617 89.7843 29.5699C89.6881 29.6662 89.5257 29.7143 89.2972 29.7143Z" fill="white"/>
<path d="M95.429 29.7143H92.6331C92.4046 29.7143 92.2362 29.6662 92.128 29.5699C92.0318 29.4617 91.9837 29.2932 91.9837 29.0647V17.3714C91.9837 17.1429 92.0318 16.9804 92.128 16.8842C92.2362 16.7759 92.4046 16.7218 92.6331 16.7218H95.429C95.6575 16.7218 95.8199 16.7759 95.9161 16.8842C96.0243 16.9804 96.0784 17.1429 96.0784 17.3714V21.2872H99.0909V17.3714C99.0909 17.1429 99.139 16.9804 99.2352 16.8842C99.3434 16.7759 99.5118 16.7218 99.7403 16.7218H102.536C102.765 16.7218 102.927 16.7759 103.023 16.8842C103.131 16.9804 103.186 17.1429 103.186 17.3714V29.0647C103.186 29.2932 103.131 29.4617 103.023 29.5699C102.927 29.6662 102.765 29.7143 102.536 29.7143H99.7403C99.5118 29.7143 99.3434 29.6662 99.2352 29.5699C99.139 29.4617 99.0909 29.2932 99.0909 29.0647V25.0586H96.0784V29.0647C96.0784 29.2932 96.0243 29.4617 95.9161 29.5699C95.8199 29.6662 95.6575 29.7143 95.429 29.7143Z" fill="white"/>
<path d="M0.00865808 14.0508C0.441498 10.48 2.05989 7.15706 4.6053 4.61297C7.1507 2.06887 10.4762 0.450367 14.0506 0.0160179C14.1353 0.00592473 14.2211 0.013376 14.3027 0.0379063C14.3843 0.0624367 14.46 0.103519 14.525 0.158586C14.59 0.213654 14.643 0.281523 14.6806 0.357955C14.7181 0.434386 14.7395 0.517736 14.7434 0.602799C14.8201 2.47938 14.5067 4.35148 13.8231 6.10107C13.1394 7.85065 12.1003 9.43978 10.7713 10.7683C9.44227 12.0968 7.85214 13.1358 6.10113 13.8198C4.35013 14.5039 2.47625 14.8182 0.597615 14.7428C0.512328 14.7392 0.428717 14.7179 0.352022 14.6805C0.275327 14.6431 0.2072 14.5902 0.151909 14.5252C0.0966174 14.4603 0.0553542 14.3846 0.0307043 14.3029C0.0060544 14.2213 -0.0014512 14.1354 0.00865808 14.0508ZM31.4 17.2556C31.2264 17.2556 31.0544 17.2448 30.8808 17.2448C29.0449 17.2424 27.2275 17.611 25.5379 18.3284C23.8483 19.0458 22.3214 20.0971 21.049 21.4192C19.7767 22.7413 18.7851 24.3067 18.1341 26.0215C17.483 27.7362 17.1858 29.5648 17.2604 31.3972C17.2643 31.4823 17.2857 31.5656 17.3233 31.642C17.3608 31.7185 17.4138 31.7863 17.4788 31.8414C17.5438 31.8965 17.6195 31.9376 17.7011 31.9621C17.7828 31.9866 17.8686 31.9941 17.9532 31.984C21.5278 31.5496 24.8536 29.9308 27.399 27.3864C29.9444 24.842 31.5627 21.5188 31.9952 17.9477C32.0053 17.8625 31.9976 17.7762 31.9726 17.6941C31.9476 17.6121 31.9058 17.5361 31.8498 17.471C31.7939 17.406 31.725 17.3532 31.6476 17.3161C31.5701 17.2791 31.4859 17.2584 31.4 17.2556ZM19.483 19.4773C20.9763 17.9776 22.7526 16.7885 24.7091 15.979C26.6655 15.1695 28.7632 14.7557 30.8808 14.7614H31.3597C31.4486 14.7646 31.5372 14.7486 31.6193 14.7146C31.7015 14.6806 31.7754 14.6293 31.8359 14.5643C31.8965 14.4992 31.9424 14.4219 31.9704 14.3376C31.9984 14.2532 32.0079 14.1639 31.9983 14.0755C31.571 10.4916 29.9496 7.15538 27.3949 4.60312C24.8402 2.05086 21.5006 0.430888 17.9129 0.00363205C17.8245 -0.0059764 17.7351 0.00353349 17.6506 0.0315163C17.5662 0.0594991 17.4888 0.105299 17.4237 0.165808C17.3586 0.226316 17.3072 0.300115 17.2732 0.382195C17.2391 0.464275 17.2231 0.552713 17.2263 0.641505C17.2968 2.83712 16.9156 5.02383 16.1062 7.06638C15.2969 9.10892 14.0766 10.9639 12.5209 12.5165C11.028 14.0174 9.25196 15.2076 7.2955 16.0181C5.33905 16.8287 3.24107 17.2435 1.12303 17.2386H0.644111C0.555224 17.2354 0.466692 17.2514 0.384525 17.2854C0.302358 17.3194 0.22848 17.3707 0.167907 17.4357C0.107334 17.5008 0.0614851 17.5781 0.0334725 17.6624C0.00545986 17.7468 -0.00406016 17.8361 0.00555853 17.9245C0.432875 21.5084 2.05421 24.8446 4.6089 27.3969C7.1636 29.9491 10.5032 31.5691 14.0909 31.9964C14.1793 32.006 14.2688 31.9965 14.3532 31.9685C14.4376 31.9405 14.515 31.8947 14.5802 31.8342C14.6453 31.7737 14.6966 31.6999 14.7307 31.6178C14.7647 31.5357 14.7807 31.4473 14.7775 31.3585C14.7062 29.1618 15.087 26.974 15.8964 24.9303C16.7057 22.8866 17.9265 21.0307 19.483 19.4773Z" fill="white"/>
</svg>
